<svg width="24" height="24" viewBox="0 0 24 24" fill="none" xmlns="http://www.w3.org/2000/svg">
<path d="M2 4C2 3.44772 2.44772 3 3 3L12 4L21 3C21.5523 3 22 3.44772 22 4L21 12L22 20C22 20.5523 21.5523 21 21 21L12 20L3 21C2.44772 21 2 20.5523 2 20L3 12L2 4Z" fill="white"/>
<path d="M11 3C11.5523 3 12 3.44771 12 4C12 3.44771 12.4477 3 13 3H21C21.5523 3 22 3.44771 22 4V11C22 11.5523 21.5523 12 21 12C21.5523 12 22 12.4477 22 13V20C22 20.5523 21.5523 21 21 21H13C12.4477 21 12 20.5523 12 20C12 20.5523 11.5523 21 11 21H3C2.44771 21 2 20.5523 2 20V13C2 12.4477 2.44772 12 3 12C2.44771 12 2 11.5523 2 11V4C2 3.44771 2.44771 3 3 3H11ZM3 20H5V17.5H4.5C4.22386 17.5 4 17.2762 4 17V13H3V20ZM6 20H8V17.5H7.5C7.22385 17.5 7 17.2762 7 17V13H6V20ZM9 20H11V17.5H10.5C10.2239 17.5 10 17.2762 10 17V13H9V20ZM13.5 13C13.2239 13 13 13.2239 13 13.5V14.5H21V13.5C21 13.2239 20.7761 13 20.5 13H13.5ZM13 10.5C13 10.7761 13.2239 11 13.5 11H20.5C20.7761 11 21 10.7761 21 10.5V6.5H13V10.5ZM3.5 4C3.22386 4 3 4.22386 3 4.5V5.5H11V4.5C11 4.22386 10.7761 4 10.5 4H3.5ZM13.5 4C13.2239 4 13 4.22386 13 4.5V5.5H21V4.5C21 4.22386 20.7761 4 20.5 4H13.5ZM11 12C11.5523 12 12 12.4477 12 13C12 12.4477 12.4477 12 13 12C12.4477 12 12 11.5523 12 11C12 11.5523 11.5523 12 11 12Z" fill="black"/>
</svg>
